<?xml version="1.0" encoding="UTF-8" standalone="no"?>
<!DOCTYPE svg PUBLIC "-//W3C//DTD SVG 1.1//EN" "http://www.w3.org/Graphics/SVG/1.1/DTD/svg11.dtd">
<svg width="100%" height="100%" viewBox="0 0 2048 2048" version="1.1" xmlns="http://www.w3.org/2000/svg" xmlns:xlink="http://www.w3.org/1999/xlink" xml:space="preserve" xmlns:serif="http://www.serif.com/" style="fill-rule:evenodd;clip-rule:evenodd;stroke-linejoin:round;stroke-miterlimit:2;">
    <g transform="matrix(0.880781,0,0,0.880781,86.8344,-54.0223)">
        <g transform="matrix(1,0,0,1,397.741,963.582)">
            <path d="M1247.58,662.336C1247.58,662.622 1247.58,662.909 1247.58,663.196M1042.77,390.517C1167.66,455.787 1247.07,552.888 1247.58,661.295C1247.14,527.169 1201.19,403.676 1124.37,305.471C1017.93,169.411 852.244,81.894 666.275,81.894C480.307,81.894 314.617,169.411 208.182,305.471C131.36,403.676 85.406,527.169 84.976,661.295C85.481,552.888 164.893,455.787 289.777,390.517C391.238,337.489 522.714,305.471 666.275,305.471C809.837,305.471 941.312,337.489 1042.77,390.517M84.973,663.196C84.973,662.909 84.973,662.622 84.973,662.336" style="fill-opacity:0.8;"/>
        </g>
        <g transform="matrix(-1,1.22465e-16,-1.22465e-16,-1,1730.29,1574.52)">
            <path d="M1247.58,662.336C1247.58,662.622 1247.58,662.909 1247.58,663.196M1042.77,390.517C1167.66,455.787 1247.07,552.888 1247.58,661.295C1247.14,527.169 1201.19,403.676 1124.37,305.471C1017.93,169.411 852.244,81.894 666.275,81.894C480.307,81.894 314.617,169.411 208.182,305.471C131.36,403.676 85.406,527.169 84.976,661.295C85.481,552.888 164.893,455.787 289.777,390.517C391.238,337.489 522.714,305.471 666.275,305.471C809.837,305.471 941.312,337.489 1042.77,390.517M84.973,663.196C84.973,662.909 84.973,662.622 84.973,662.336" style="fill:rgb(41,171,226);fill-opacity:0.6;"/>
        </g>
        <g transform="matrix(-1,1.22465e-16,-1.22465e-16,-1,2892.9,1574.52)">
            <path d="M1247.58,662.336C1247.58,662.622 1247.58,662.909 1247.58,663.196M1042.77,390.517C1167.66,455.787 1247.07,552.888 1247.58,661.295C1247.14,527.169 1201.19,403.676 1124.37,305.471C1017.93,169.411 852.244,81.894 666.275,81.894L666.275,305.471C809.837,305.471 941.312,337.489 1042.77,390.517" style="fill:rgb(41,171,226);fill-opacity:0.3;"/>
        </g>
        <g transform="matrix(-1,1.22465e-16,-1.22465e-16,-1,567.687,1574.52)">
            <path d="M666.275,81.894C480.307,81.894 314.617,169.411 208.182,305.471C131.36,403.676 85.406,527.169 84.976,661.295C85.481,552.888 164.893,455.787 289.777,390.517C391.238,337.489 522.714,305.471 666.275,305.471M84.973,663.196C84.973,662.909 84.973,662.622 84.973,662.336" style="fill:rgb(41,171,226);fill-opacity:0.3;"/>
        </g>
        <g transform="matrix(1,0,0,1,-855.092,23.7581)">
            <circle cx="1337.81" cy="887.571" r="90.228"/>
        </g>
        <g transform="matrix(1,0,0,1,307.513,23.7581)">
            <circle cx="1337.81" cy="887.571" r="90.228"/>
        </g>
        <g transform="matrix(1,0,0,1,397.741,963.582)">
            <path d="M1042.77,390.517C941.312,476.895 809.836,529.049 666.275,529.049C522.714,529.049 391.239,476.895 289.777,390.517C391.238,337.489 522.714,305.471 666.275,305.471C809.837,305.471 941.312,337.489 1042.77,390.517Z" style="fill:rgb(160,160,160);fill-opacity:0.3;"/>
        </g>
    </g>
</svg>
