<?xml version="1.0" encoding="UTF-8"?>
<svg version="1.1" xmlns="http://www.w3.org/2000/svg" width="2584" height="2584">
<path d="M0 0 C852.72 0 1705.44 0 2584 0 C2584 852.72 2584 1705.44 2584 2584 C1731.28 2584 878.56 2584 0 2584 C0 1731.28 0 878.56 0 0 Z " fill="#F0CDCB" transform="translate(0,0)"/>
<path d="M0 0 C1.2679541 0.4345752 1.2679541 0.4345752 2.56152344 0.87792969 C12.77747771 4.44569442 22.79291945 8.25043071 32 14 C32.91048096 14.55397461 32.91048096 14.55397461 33.83935547 15.11914062 C44.95931638 21.90710042 55.08491938 29.56393141 65 38 C65.75410156 38.63421875 66.50820312 39.2684375 67.28515625 39.921875 C69.22165379 41.58290474 71.11449742 43.28117169 73 45 C73.77706299 45.70358643 73.77706299 45.70358643 74.56982422 46.42138672 C87.19952691 57.88044662 87.19952691 57.88044662 92.23828125 63.921875 C94.07949102 66.09376768 95.999779 68.18147746 97.93847656 70.26635742 C133.18012952 108.19725276 161.75932369 155.21627208 183.23046875 202.17578125 C185.42890507 206.97932213 187.83967402 211.6694427 190.26171875 216.36328125 C192.26806324 220.42022344 193.94953101 224.61163824 195.67260742 228.79467773 C196.96009743 231.90364523 198.28008566 234.99632932 199.61328125 238.0859375 C205.10015065 250.84162452 210.29453486 263.62941089 214.86328125 276.74267578 C215.69052244 279.11317662 216.52358966 281.48108909 217.36328125 283.84716797 C228.68641143 315.78357047 237.64237252 347.83513363 244.58007812 381.0012207 C244.97016953 382.85801043 245.36759499 384.7132552 245.765625 386.56835938 C249.75340798 405.23339917 252.05412301 424.03149 254 443 C254.10602539 443.93360352 254.21205078 444.86720703 254.32128906 445.82910156 C255.44088366 456.83644202 255.24401463 467.94826379 255.25 479 C255.25067474 480.11637848 255.25134949 481.23275696 255.25204468 482.38296509 C255.22450175 511.07368915 252.5767746 538.47632373 244 566 C243.74863281 566.81307617 243.49726563 567.62615234 243.23828125 568.46386719 C241.84635342 572.91522021 240.11913505 576.98732631 237.95703125 581.1171875 C236.86711587 583.1943554 236.86711587 583.1943554 235.6875 586.25 C231.86090684 595.30971786 226.31308113 603.50900645 220 611 C219.00033203 612.21816406 219.00033203 612.21816406 217.98046875 613.4609375 C212.3594988 620.04405546 206.09458884 625.07401992 199 630 C198.34644531 630.48210938 197.69289063 630.96421875 197.01953125 631.4609375 C192.77000489 634.40652531 188.11921135 636.27613362 183.3125 638.125 C182.68956055 638.36694092 182.06662109 638.60888184 181.42480469 638.8581543 C170.43221027 642.90069059 159.81100568 644.4914538 148.125 644.3125 C146.89193115 644.29977051 145.6588623 644.28704102 144.38842773 644.27392578 C105.39701892 643.65080481 68.34962489 626.42250509 37 604 C36.23526367 603.45553223 35.47052734 602.91106445 34.68261719 602.35009766 C25.3393117 595.66655179 16.34937596 588.90237304 8 581 C6.71394915 579.86858452 5.42236783 578.74342054 4.125 577.625 C-6.5169793 568.33745443 -17.00241462 558.81541504 -26.203125 548.07421875 C-28.1746243 545.79842282 -30.21134395 543.59077333 -32.25 541.375 C-37.28082745 535.79273278 -41.87388348 529.91697545 -46.46386719 523.97314453 C-48.06611773 521.91507256 -49.69085589 519.87642918 -51.3203125 517.83984375 C-72.7531687 490.91797471 -89.97683123 461.05009253 -105.4375 430.375 C-105.82631348 429.60671875 -106.21512695 428.8384375 -106.61572266 428.046875 C-109.21638995 422.81633205 -111.51246646 417.49280063 -113.72973633 412.08935547 C-114.96407472 409.08737239 -116.2321829 406.1018194 -117.5078125 403.1171875 C-125.12162908 385.07273171 -131.28622203 366.71997743 -137 348 C-137.35078613 346.85756836 -137.70157227 345.71513672 -138.06298828 344.53808594 C-142.8891482 328.64157326 -146.35016264 312.56268554 -149.39331055 296.24560547 C-149.7629072 294.26837494 -150.14208454 292.29286359 -150.53833008 290.32080078 C-152.11095783 282.29587536 -152.95180133 274.20246178 -153.80493164 266.07617188 C-154.06132263 263.63620451 -154.32409634 261.19698942 -154.58789062 258.7578125 C-155.08000184 254.17393837 -155.54764509 249.58795767 -156 245 C-156.11037598 243.88947266 -156.22075195 242.77894531 -156.33447266 241.63476562 C-157.19947033 231.85327843 -157.24347086 222.0628514 -157.25 212.25 C-157.25067474 211.332258 -157.25134949 210.41451599 -157.25204468 209.46896362 C-157.20390691 167.88558253 -152.20564795 124.37521331 -135.77148438 85.85644531 C-134.62066616 83.08719794 -133.63740945 80.2597647 -132.625 77.4375 C-122.51888232 51.19472884 -104.73935854 27.30985933 -82 10.8125 C-81.43071777 10.39621338 -80.86143555 9.97992676 -80.27490234 9.55102539 C-57.75000233 -6.48359477 -25.78158224 -8.94558765 0 0 Z " fill="#000000" transform="translate(2169,762)"/>
<path d="M0 0 C0.69480469 0.25168945 1.38960937 0.50337891 2.10546875 0.76269531 C12.70295238 4.71438363 21.87122805 10.38494786 31 17 C31.81855469 17.58523438 32.63710938 18.17046875 33.48046875 18.7734375 C40.44099269 23.97164299 46.71322073 30.02092298 53 36 C53.85335938 36.81082031 54.70671875 37.62164063 55.5859375 38.45703125 C60.56968672 43.3132101 64.86957957 48.40882112 69 54 C69.79921875 55.04414062 70.5984375 56.08828125 71.421875 57.1640625 C94.18271521 87.16508152 110.39087501 121.2872393 122 157 C122.31533691 157.95213379 122.63067383 158.90426758 122.95556641 159.88525391 C138.46726372 206.98000729 145.23438656 256.12510797 145.1875 305.625 C145.18709213 307.2442337 145.18709213 307.2442337 145.18667603 308.8961792 C145.10847328 376.55969563 131.61611127 441.22355596 107.1875 504.1875 C106.5219812 505.91444092 106.5219812 505.91444092 105.84301758 507.67626953 C103.63623923 513.28500909 101.27669331 518.59458146 98.25219727 523.80834961 C95.94786063 527.84150033 93.93529181 532.02596256 91.875 536.1875 C91.23111328 537.48204102 91.23111328 537.48204102 90.57421875 538.80273438 C89.94580078 540.06633789 89.94580078 540.06633789 89.3046875 541.35546875 C88.90290283 542.16322754 88.50111816 542.97098633 88.0871582 543.80322266 C87.20585 545.58404708 86.33729235 547.37117772 85.47265625 549.16015625 C83.66900349 552.63828769 81.65117226 555.93726286 79.5625 559.25 C79.13001953 559.93747314 78.69753906 560.62494629 78.25195312 561.33325195 C70.04213805 574.31217547 61.60669869 587.00753177 52 599 C51.26265625 599.93070313 50.5253125 600.86140625 49.765625 601.8203125 C25.06100475 632.56968025 -7.23848579 661.20940379 -46 672 C-47.05703125 672.31839844 -48.1140625 672.63679688 -49.203125 672.96484375 C-70.78567706 678.62114061 -95.441985 675.79299621 -114.92773438 664.92480469 C-124.23921372 659.37463576 -132.37261714 652.66968377 -140 645 C-140.92425781 644.07574219 -141.84851563 643.15148438 -142.80078125 642.19921875 C-171.60885562 612.08724285 -187.05286106 569.6336413 -197 530 C-197.18695435 529.25968536 -197.37390869 528.51937073 -197.56652832 527.75662231 C-200.85494379 514.64970976 -203.49862857 501.53015383 -205.625 488.1875 C-205.77374573 487.26710938 -205.92249146 486.34671875 -206.07574463 485.3984375 C-208.82172858 468.32048299 -210.85408966 451.2624405 -212 434 C-212.04625519 433.32661591 -212.09251038 432.65323181 -212.14016724 431.95944214 C-213.12060358 417.33350363 -213.19859861 402.7167401 -213.1875 388.0625 C-213.18756042 386.83377167 -213.18762085 385.60504333 -213.18768311 384.33908081 C-213.1733652 363.82002226 -212.52066175 343.45833145 -211 323 C-210.85289661 320.78393811 -210.70699335 318.5677961 -210.5625 316.3515625 C-205.48929424 242.45244243 -188.97508758 163.68186781 -155.14892578 97.26513672 C-154.38641083 95.76181888 -153.62951264 94.25563815 -152.87841797 92.74658203 C-139.41833239 65.71612987 -121.00421677 37.90679622 -97 19 C-96.14664063 18.3090625 -95.29328125 17.618125 -94.4140625 16.90625 C-82.31184495 7.43212795 -70.04683466 0.45718939 -55 -3 C-53.82050781 -3.35320312 -52.64101563 -3.70640625 -51.42578125 -4.0703125 C-34.98837766 -8.15515045 -15.72124206 -5.81160943 0 0 Z " fill="#000000" transform="translate(368,1048)"/>
<path d="M0 0 C0.78117187 0.42410156 1.56234375 0.84820313 2.3671875 1.28515625 C10.02843382 5.91543812 15.69961087 12.24368009 18 21 C19.78285766 35.29208843 16.08665268 46.20032179 10 59 C9.66371582 59.72493652 9.32743164 60.44987305 8.98095703 61.19677734 C-0.01676436 80.50073432 -11.86231341 97.98998809 -24.9375 114.75 C-25.59177979 115.59026733 -25.59177979 115.59026733 -26.25927734 116.44750977 C-28.97616271 119.87421675 -31.87313345 122.94768707 -35 126 C-36.49406155 127.51377765 -37.98601503 129.02963708 -39.4765625 130.546875 C-56.93020777 148.22241735 -56.93020777 148.22241735 -66 155 C-67.47146484 156.12728516 -67.47146484 156.12728516 -68.97265625 157.27734375 C-71.96098882 159.54787203 -74.97355916 161.78061005 -78 164 C-79.12728516 164.84111328 -79.12728516 164.84111328 -80.27734375 165.69921875 C-97.26473513 178.02925854 -116.31263056 188.6892362 -135.75390625 196.61328125 C-138.16569629 197.64358867 -140.43627588 198.72282176 -142.7578125 199.92578125 C-147.46789309 202.31029815 -152.34598229 204.10099194 -157.3125 205.875 C-158.75230225 206.39163208 -158.75230225 206.39163208 -160.22119141 206.91870117 C-173.55992258 211.664317 -186.65097793 216.03911616 -200.62890625 218.421875 C-203.74105151 218.95559168 -206.74250959 219.63370086 -209.79003906 220.44116211 C-259.02101546 232.89031202 -311.92214925 229.24456893 -362 225 C-363.36863547 224.88651512 -364.73728671 224.77322014 -366.10595703 224.66015625 C-375.74493833 223.85181409 -385.37223469 222.93017477 -395 222 C-403.71801687 221.15875688 -412.43637855 220.32137537 -421.15558338 219.49253368 C-424.70448351 219.15483935 -428.25310819 218.81467105 -431.80117798 218.46835327 C-458.2922814 215.88398382 -484.44896848 214.81659041 -511.0625 214.875 C-513.01065613 214.87782486 -513.01065613 214.87782486 -514.99816895 214.88070679 C-553.18078152 214.78724733 -553.18078152 214.78724733 -591.12646484 218.55859375 C-594.12958065 219.019905 -597.13618627 219.44920638 -600.14453125 219.875 C-612.07521707 221.5967567 -623.92573266 223.66456928 -635.75 226 C-636.96244385 226.2369458 -638.1748877 226.4738916 -639.42407227 226.71801758 C-646.63575395 228.17538753 -653.6567789 229.99107268 -660.71386719 232.06738281 C-665.35123761 233.38348646 -670.03542299 234.38088039 -674.75 235.375 C-683.29678114 237.24633241 -691.47623341 239.65972078 -699.73046875 242.5390625 C-703.82404912 243.96380263 -707.95694057 245.18924608 -712.125 246.375 C-722.2924732 249.28971617 -732.29411976 252.70656142 -742.31176758 256.09423828 C-744.78165938 256.92643323 -747.25540583 257.74584817 -749.73046875 258.5625 C-753.79111123 259.91483654 -757.80786075 261.36552422 -761.8125 262.875 C-762.50335693 263.13474609 -763.19421387 263.39449219 -763.90600586 263.66210938 C-768.95175016 265.57273029 -773.93760986 267.605156 -778.91015625 269.69921875 C-782.6005121 271.25280724 -786.29474984 272.79478372 -790 274.3125 C-790.63558838 274.57933594 -791.27117676 274.84617187 -791.92602539 275.12109375 C-795.24380542 276.47112069 -797.34519439 277 -801 277 C-801 277.66 -801 278.32 -801 279 C-801.64066406 279.18175781 -802.28132813 279.36351562 -802.94140625 279.55078125 C-809.45721751 281.44434786 -815.49864968 283.6599909 -821.5 286.875 C-825.28648055 288.80493098 -829.21550455 290.13448341 -833.25 291.4375 C-843.40206507 294.72464446 -852.99803018 298.97992252 -862.62915039 303.54541016 C-867.33895773 305.7531133 -872.03966213 307.47449927 -877 309 C-881.25423959 310.51093033 -885.44289216 312.17623189 -889.625 313.875 C-895.01691645 316.05524616 -900.49914991 317.9568969 -905.99609375 319.8515625 C-909.11532985 320.91727911 -909.11532985 320.91727911 -912 323 C-913.307081 323.50647671 -914.63279814 323.96611116 -915.96875 324.390625 C-916.76796875 324.64779297 -917.5671875 324.90496094 -918.390625 325.16992188 C-919.68226563 325.58081055 -919.68226563 325.58081055 -921 326 C-922.82310853 326.59837407 -924.64601676 327.19735869 -926.46875 327.796875 C-944.59398618 333.68821598 -962.87205319 339.6207763 -981.59375 343.32421875 C-984.14915133 343.83119631 -986.68043901 344.37514612 -989.21875 344.95703125 C-1009.57016955 349.56909756 -1029.79806216 351.51216152 -1050.65405273 351.39111328 C-1053.93320378 351.37502108 -1057.2111199 351.39108737 -1060.49023438 351.41015625 C-1109.78267571 351.45816643 -1160.74733491 338.74269526 -1202 311 C-1203.05960938 310.30519531 -1204.11921875 309.61039063 -1205.2109375 308.89453125 C-1213.3075783 303.46151219 -1220.68254289 297.42423549 -1228 291 C-1229.01291462 290.12357514 -1230.02593254 289.24726966 -1231.0390625 288.37109375 C-1236.24147516 283.80615982 -1236.24147516 283.80615982 -1238 282 C-1238 281.34 -1238 280.68 -1238 280 C-1238.99 279.67 -1239.98 279.34 -1241 279 C-1249.22146606 270.01119711 -1253.53282841 259.99543747 -1253.24609375 247.80078125 C-1252.27234187 236.71855743 -1247.05713886 229.24050637 -1238.7109375 222.2265625 C-1231.08826248 216.76190506 -1221.08108239 216.02914113 -1212 217 C-1202.46907315 219.60056232 -1195.80078475 224.97093304 -1189.125 232 C-1178.44380885 242.95400484 -1165.78731161 253.39459999 -1151.60546875 259.44921875 C-1148.24611223 260.89414241 -1145.09550659 262.52271075 -1141.875 264.25 C-1126.94556656 271.90059012 -1110.47108244 276.2007511 -1094 279 C-1093.06542969 279.17587646 -1092.13085938 279.35175293 -1091.16796875 279.53295898 C-1079.46357112 281.51055583 -1067.71567186 281.43990951 -1055.875 281.4375 C-1054.20692795 281.43910126 -1054.20692795 281.43910126 -1052.50515747 281.44073486 C-1036.20279227 281.41814505 -1020.87586153 280.62544826 -1004.99023438 276.73095703 C-1001.95693089 275.98947184 -998.91421219 275.33010733 -995.859375 274.68359375 C-978.870425 270.97703579 -962.46880372 265.51250755 -946 260 C-945.12561279 259.71415039 -944.25122559 259.42830078 -943.3503418 259.13378906 C-938.75932795 257.63178771 -934.28388034 255.96119392 -929.8125 254.125 C-923.601765 251.59754076 -917.3379787 249.31040068 -911.01171875 247.0859375 C-908.73582498 246.26531692 -906.52304971 245.41413241 -904.3125 244.4375 C-901.39816077 243.17278675 -898.48877547 242.07175304 -895.5 241 C-891.25898861 239.47714361 -887.13892267 237.78401839 -883 236 C-880.91851541 235.20348523 -878.8349579 234.41237822 -876.75 233.625 C-872.58140486 232.04036281 -868.5274115 230.35110926 -864.5 228.4375 C-859.47841933 226.09213509 -854.37347769 224.48870305 -849.04296875 222.9921875 C-845.82994045 221.94455055 -842.99146985 220.56400499 -840 219 C-836.44544011 217.4201956 -832.87935388 215.94221286 -829.2265625 214.609375 C-825.32399712 213.15342136 -821.53946076 211.47549185 -817.75 209.75 C-810.5568889 206.52373557 -803.22055243 203.8760834 -795.73925781 201.39746094 C-790.99974751 199.8167707 -790.99974751 199.8167707 -786.60546875 197.484375 C-784.06280042 196.03577835 -782.05852452 195.40832235 -779.2421875 194.68359375 C-774.37621252 193.43082934 -769.67428334 191.90647191 -764.9453125 190.22265625 C-764.23091003 189.96833832 -763.51650757 189.71402039 -762.78045654 189.45199585 C-760.56089578 188.65845928 -758.34277722 187.86100649 -756.125 187.0625 C-746.14377691 183.47553222 -736.16956048 180.02562113 -726 177 C-723.88925469 176.35699475 -721.77857826 175.71376336 -719.66796875 175.0703125 C-706.64443745 171.1463265 -693.59562143 167.52303968 -680.375 164.32421875 C-676.6899726 163.43258269 -673.0348408 162.46744461 -669.3828125 161.44921875 C-664.57695596 160.12705571 -659.77321932 159.04174116 -654.875 158.125 C-654.02043213 157.96281982 -653.16586426 157.80063965 -652.28540039 157.63354492 C-641.90637429 155.7190894 -631.46183437 154.19612037 -621.02099609 152.66259766 C-620.32191635 152.55941727 -619.62283661 152.45623688 -618.90257263 152.34992981 C-616.98539338 152.06761262 -615.06778268 151.78822976 -613.15014648 151.5090332 C-610.70582253 151.11405409 -608.3914694 150.61495853 -606 150 C-603.24985621 149.65478153 -600.50682172 149.34239628 -597.75 149.0625 C-596.92226074 148.97750244 -596.09452148 148.89250488 -595.24169922 148.80493164 C-588.54079962 148.13013234 -581.8348881 147.51565517 -575.125 146.9375 C-574.23135742 146.85830322 -573.33771484 146.77910645 -572.41699219 146.69750977 C-552.01843274 144.99285989 -531.58410595 144.72021245 -511.125 144.6875 C-510.41103436 144.68605484 -509.69706871 144.68460968 -508.96146774 144.68312073 C-480.57165258 144.63698089 -452.45256145 146.13100149 -424.1739502 148.71173096 C-420.97032943 149.00269478 -417.76608413 149.28550827 -414.56152344 149.56591797 C-405.05736529 150.39900474 -395.55517898 151.25223133 -386.05859375 152.16796875 C-385.32385834 152.23761337 -384.58912292 152.307258 -383.8321228 152.37901306 C-379.85323897 152.76942821 -375.93997994 153.32967168 -372 154 C-370.36149158 154.1759244 -368.72061726 154.33113349 -367.078125 154.46484375 C-366.13195313 154.54283203 -365.18578125 154.62082031 -364.2109375 154.70117188 C-363.23382812 154.77916016 -362.25671875 154.85714844 -361.25 154.9375 C-360.35023438 155.01162109 -359.45046875 155.08574219 -358.5234375 155.16210938 C-356.4133704 155.33421697 -354.30288198 155.50118911 -352.19213867 155.66479492 C-348.9037749 155.92180028 -345.61874494 156.20990567 -342.33325195 156.5012207 C-326.43152357 157.87016876 -310.64467119 158.36327339 -294.6875 158.3125 C-293.48898407 158.31067719 -292.29046814 158.30885437 -291.05563354 158.30697632 C-264.68714797 158.23961069 -239.7196127 156.0943986 -214 150 C-213.19127441 149.81260254 -212.38254883 149.62520508 -211.54931641 149.43212891 C-201.69031254 147.14700871 -201.69031254 147.14700871 -192.1328125 143.859375 C-189.03005232 142.60917859 -185.89216043 141.45879032 -182.75 140.3125 C-181.56921875 139.87550781 -180.3884375 139.43851563 -179.171875 138.98828125 C-176 138 -176 138 -172 138 C-172 137.34 -172 136.68 -172 136 C-170.12855305 135.17934931 -168.25265664 134.3688416 -166.375 133.5625 C-165.33085938 133.11003906 -164.28671875 132.65757812 -163.2109375 132.19140625 C-160.11314749 131.04198295 -157.26789946 130.42688777 -154 130 C-154 129.34 -154 128.68 -154 128 C-152.02 127.67 -150.04 127.34 -148 127 C-148 126.34 -148 125.68 -148 125 C-145.62109375 123.4140625 -145.62109375 123.4140625 -142.4375 121.625 C-141.33277344 120.99722656 -140.22804688 120.36945313 -139.08984375 119.72265625 C-137.41700868 118.79001369 -135.74350847 117.85854103 -134.06640625 116.93359375 C-123.94039841 111.30242231 -114.83008704 104.46510779 -106 97 C-104.91391325 96.11056957 -103.82663023 95.22259832 -102.73828125 94.3359375 C-95.20581376 88.15281367 -88.05062705 81.72371214 -82.3828125 73.71484375 C-81.92648437 73.14894531 -81.47015625 72.58304688 -81 72 C-80.34 72 -79.68 72 -79 72 C-78.72236816 71.41460449 -78.44473633 70.82920898 -78.15869141 70.22607422 C-77.06121655 68.11760904 -75.86414408 66.29730063 -74.4609375 64.3828125 C-73.96674316 63.70049561 -73.47254883 63.01817871 -72.96337891 62.31518555 C-72.43921387 61.59242432 -71.91504883 60.86966309 -71.375 60.125 C-66.03731062 52.65846563 -61.31679903 45.10125738 -57 37 C-56.44570312 35.97261719 -55.89140625 34.94523437 -55.3203125 33.88671875 C-52.74287821 28.94343059 -50.71349322 24.23992682 -49.1875 18.875 C-46.37994053 9.98633661 -39.93524459 3.62829309 -32.01953125 -1.0625 C-21.52439403 -5.93451728 -10.12132133 -5.506685 0 0 Z " fill="#A56160" transform="translate(1980,1406)"/>
<path d="M0 0 C4.12714622 2.17968208 7.52450788 4.90227876 11 8 C11.928125 8.825 12.85625 9.65 13.8125 10.5 C25.30138974 23.63015971 29.97684294 36.59998517 29 54 C28.17748615 60.40532658 25.92665765 66.37487678 21.06640625 70.734375 C15.96462853 74.66602022 12.02019859 76.44778717 5.52734375 76.33203125 C-3.59813131 75.13316667 -10.3191191 68.79520754 -16 62 C-25.62790733 49.43995726 -28.89656711 33.50540373 -27 18 C-25.62288962 11.47087668 -23.02901891 7.25905114 -17.78125 3.15625 C-12.02783653 -0.5784219 -6.78627749 -1.21825945 0 0 Z " fill="#FAFAFA" transform="translate(2171,821)"/>
<path d="M0 0 C9.27290505 4.79487345 13.63935772 13.94832942 16.90234375 23.38671875 C19.90522949 33.73848975 19.61930446 49.68727306 14.90234375 59.38671875 C10.11846827 67.22523333 4.72022675 74.05921573 -4.09765625 77.38671875 C-8.95873324 78.04490699 -12.81236787 77.99156034 -17.28515625 75.88671875 C-24.75759395 69.24455191 -28.79827022 62.87245359 -32.09765625 53.38671875 C-32.46890625 52.33484375 -32.46890625 52.33484375 -32.84765625 51.26171875 C-36.2531241 39.91015925 -34.79798309 23.96904223 -29.5859375 13.2890625 C-22.41108497 2.5993384 -13.34507749 -3.90163346 0 0 Z " fill="#FAFAFA" transform="translate(316.09765625,1119.61328125)"/>
<path d="M0 0 C3.99998437 -0.02927916 7.99994076 -0.04689219 12 -0.0625 C13.12535156 -0.07087891 14.25070313 -0.07925781 15.41015625 -0.08789062 C31.5471044 -0.13507468 31.5471044 -0.13507468 35 2.5625 C35.495 3.2740625 35.495 3.2740625 36 4 C28.46327684 3.09039548 28.46327684 3.09039548 25.4375 2.5 C20.51402025 1.78385749 15.59284581 1.63300877 10.625 1.4375 C9.60277344 1.39431641 8.58054687 1.35113281 7.52734375 1.30664062 C5.01834712 1.20112208 2.50926057 1.09900787 0 1 C0 0.67 0 0.34 0 0 Z " fill="#988483" transform="translate(2130,757)"/>
<path d="M0 0 C0.61328125 1.859375 0.61328125 1.859375 1 4 C-0.8125 6.25 -0.8125 6.25 -3 8 C-3.66 8 -4.32 8 -5 8 C-5.226875 8.556875 -5.45375 9.11375 -5.6875 9.6875 C-7.35896766 12.63246684 -9.55276352 14.68156544 -12 17 C-12.66 16.67 -13.32 16.34 -14 16 C-13.57589844 15.59910156 -13.15179687 15.19820312 -12.71484375 14.78515625 C-7.98213054 10.19806499 -3.93820583 5.27887165 0 0 Z " fill="#C8B0B1" transform="translate(2393,1367)"/>
<path d="M0 0 C0.66 0.99 1.32 1.98 2 3 C0.69172988 7.30959569 -0.01644881 9.29092821 -3.6875 11.9375 C-4.450625 12.288125 -5.21375 12.63875 -6 13 C-4.31326082 8.50202887 -2.18326108 4.27113698 0 0 Z " fill="#E8B8B6" transform="translate(1985,1473)"/>
<path d="M0 0 C0.66 0 1.32 0 2 0 C1.875 2.3125 1.875 2.3125 1 5 C-2.0625 6.8125 -2.0625 6.8125 -5 8 C-3.63055898 5.05043472 -2.12169591 2.47531189 0 0 Z " fill="#CDB7B3" transform="translate(432,1630)"/>
<path d="M0 0 C1.34780093 2.69560185 0.67336458 3.742617 -0.25 6.5625 C-0.50265625 7.36816406 -0.7553125 8.17382812 -1.015625 9.00390625 C-1.34046875 9.66261719 -1.6653125 10.32132813 -2 11 C-2.99 11.33 -3.98 11.66 -5 12 C-3.68938409 7.76570244 -2.05643741 3.92592596 0 0 Z " fill="#AE9897" transform="translate(466,1570)"/>
<path d="M0 0 C2.00993705 3.01490557 2.72623341 5.2149927 3.625 8.6875 C3.88539063 9.68136719 4.14578125 10.67523437 4.4140625 11.69921875 C4.60742188 12.45847656 4.80078125 13.21773437 5 14 C4.01 14 3.02 14 2 14 C1.66179834 12.4176994 1.32964061 10.83410625 1 9.25 C0.814375 8.36828125 0.62875 7.4865625 0.4375 6.578125 C0 4 0 4 0 0 Z " fill="#50403F" transform="translate(2392,1065)"/>
<path d="M0 0 C0.66 0.66 1.32 1.32 2 2 C-0.80804268 4.96404505 -3.18315774 7.44499019 -7 9 C-5.7260411 6.96166576 -4.38938077 4.96147874 -3 3 C-2.34 3 -1.68 3 -1 3 C-0.67 2.01 -0.34 1.02 0 0 Z " fill="#E7B9B5" transform="translate(1951,1524)"/>
<path d="M0 0 C0.99 0 1.98 0 3 0 C3.33 2.97 3.66 5.94 4 9 C3.01 9.495 3.01 9.495 2 10 C1.34 6.7 0.68 3.4 0 0 Z " fill="#E3CBC8" transform="translate(2399,1085)"/>
<path d="M0 0 C0.33 0.66 0.66 1.32 1 2 C0.06421005 4.35981813 -0.93347808 6.69631264 -2 9 C-2.33 9 -2.66 9 -3 9 C-3 6.36 -3 3.72 -3 1 C-2.01 0.67 -1.02 0.34 0 0 Z " fill="#C2A9A5" transform="translate(2034,844)"/>
<path d="M0 0 C4 2 4 2 6 5 C5.67 6.32 5.34 7.64 5 9 C3.35 6.03 1.7 3.06 0 0 Z " fill="#D8C0BE" transform="translate(2306,883)"/>
<path d="M0 0 C0.33 0.99 0.66 1.98 1 3 C1.66 3.33 2.32 3.66 3 4 C1.35 5.32 -0.3 6.64 -2 8 C-2 4.79604584 -1.25664978 2.90600261 0 0 Z " fill="#B17777" transform="translate(1927,1434)"/>
</svg>
